Genre:Biography | Drama
Language:English
 
http://www.imdb.com/title/tt1616195/

Source:FYA Thanks!

Format : AVI
Format/Info : Audio Video Interleave
File size : 954 MiB
Duration : 2h 1mn
Overall bit rate : 1 096 Kbps

Video
ID : 0
Format : MPEG-4 Visual
Format profile : Advanced Simple@L5
Format settings, BVOP : Yes
Format settings, QPel : No
Format settings, GMC : No warppoints
Format settings, Matrix : Default (H.263)
Muxing mode : Packed bitstream
Codec ID : XVID
Codec ID/Hint : XviD
Duration : 2h 1mn
Bit rate : 959 Kbps
Width : 624 pixels
Height : 262 pixels
Display aspect ratio : 2.35:1
Frame rate : 24.000 fps
Color space : YUV
Chroma subsampling : 4:2:0
Bit depth : 8 bits
Scan type : Progressive
Bits/(Pixel*Frame) : 0.244
Stream size : 835 MiB (87%)
Writing library : XviD 1.2.1 (UTC 2008-12-04)

Audio
ID : 1
Format : MPEG Audio
Format version : Version 1
Format profile : Layer 3
Mode : Joint stereo
Mode extension : MS Stereo
Codec ID : 55
Codec ID/Hint : MP3
Duration : 2h 1mn
Bit rate mode : Constant
Bit rate : 128 Kbps
Channel(s) : 2 channels
Sampling rate : 44.1 KHz
Stream size : 111 MiB (12%)
Alignment : Split accross interleaves
Interleave, duration : 42 ms (1.00 video frame)
Interleave, preload duration : 500 ms
Writing library : LAME3.98r


Plot:
As the face of law enforcement in America for almost 50 years, J. Edgar Hoover was feared and admired, reviled and revered. But behind closed doors, he held secrets that would have destroyed his image, his career and his life
 
http://img825.imageshack.us/img825/2158/vlcsnap00001fg.png 
http://img31.imageshack.us/img31/2008/vlcsnap00002f.png 
http://img838.imageshack.us/img838/8229/vlcsnap00005w.png 
http://img696.imageshack.us/img696/9509/vlcsnap00003hd.png

